# xmcd
#
# Track frame offsets: 
#        150
#        11768
#        24310
#        36592
#        48379
#        62473
#        73725
#        87757
#        101048
#        114351
#        125794
#        137892
#        148605
#        160448
#        171413
#        184158
#        196060
#        208366
#        219766
#        233378
#        246172
#        258433
#        271406
#
# Disc length: 3779 seconds
#
# Revision: 0
# Processed by: cddbd v1.5.2PL0 Copyright (c) Steve Scherf et al.
# Submitted via: ExactAudioCopyFreeDBPlugin 1.0
#
DISCID=550ec117
DTITLE=Roy Rogers - Hi Ho Silver
DYEAR=2000
DGENRE=Country
TTITLE0=Hi Ho Silver
TTITLE1=I'm An Old Cowhand (From The Rio Grande)
TTITLE2=I've Sold My Saddle For An Old Guitar
TTITLE3=Chapel In The Valley
TTITLE4=Listen To The Rhythm Of The Range
TTITLE5=Hadie Brown
TTITLE6=There's A Round Up In The Sky
TTITLE7=Echoes From The Hills
TTITLE8=Cowboy Night Herd Song
TTITLE9=Don't Waste Your Love On Me
TTITLE10=When The Black Sheep Gets The Blues
TTITLE11=You Waited Too Long
TTITLE12=Hold That Critter Down
TTITLE13=My Chickashay Gal
TTITLE14=Don't Fence Me In
TTITLE15=Ride, Ranger, Ride
TTITLE16=On The Old Spanish Trail
TTITLE17=Time Changes Everything
TTITLE18=Moonlight On The Prairie
TTITLE19=Blue Shadows On The Trail
TTITLE20=Melody Of The Plains
TTITLE21=Tumbling Tumbleweeds
TTITLE22=Yesterday
EXTD=
EXTT0=
EXTT1=
EXTT2=
EXTT3=
EXTT4=
EXTT5=
EXTT6=
EXTT7=
EXTT8=
EXTT9=
EXTT10=
EXTT11=
EXTT12=
EXTT13=
EXTT14=
EXTT15=
EXTT16=
EXTT17=
EXTT18=
EXTT19=
EXTT20=
EXTT21=
EXTT22=
PLAYORDER=
